<svg id="Home" xmlns="http://www.w3.org/2000/svg" viewBox="0 0 141.3 30.67"><defs><style>.cls-1{fill:#fff;}</style></defs><title>Artboard 4</title><path class="cls-1" d="M5.9,30.31H7v.36H0v-.36H1V.36H0V0H7V.36h-1Z"/><path class="cls-1" d="M29.66,30.34v.33H23.61v-.33h.8V20.12c-.11-2-.54-7-3.64-7a7.58,7.58,0,0,0-5.47,2.3V30.38h.79v.29H9.76v-.29h.79V13.07H9.76v-.36h6.33v.36H15.3v2a7.68,7.68,0,0,1,5.47-2.24c4.57,0,7.74,3.71,8,8.21v9.32Z"/><path class="cls-1" d="M41.33,30.13a7.76,7.76,0,0,1-2.88.54,8.91,8.91,0,0,1-5.83-2.13,2.58,2.58,0,0,1-.94-1.9A2.4,2.4,0,1,1,34.06,29a1.51,1.51,0,0,1-.4,0,9.09,9.09,0,0,0,4.79,1.4c1.9,0,4.5-1,3.81-3.53a2.93,2.93,0,0,0-1.47-1.47l-5.15-2.2a6,6,0,0,1-4-5.36c.18-3.24,3.6-5.19,6.66-5.19A7.1,7.1,0,0,1,43.85,15v-.61h.39v1.77h-.39v-.62a6.62,6.62,0,0,0-5.51-2.62,6.22,6.22,0,0,0-2.09.32,2.57,2.57,0,0,0-1.62,3.17A3.2,3.2,0,0,0,36,17.78a5.16,5.16,0,0,0,1,.47l4.53,1.94c.87.4,3.39,1.77,3.67,4.61C45.21,27.28,43.74,29,41.33,30.13Z"/><path class="cls-1" d="M57.67,11.59v1.62h-.32v-.65H52.74v12c0,2.12,1.11,4,2.37,4,1,0,1.88-1.29,2.13-3.13h.29c-.4,3-2.34,5.26-4.58,5.26-2.59,0-4.75-2.67-4.75-6h0V5.72h-.76V5.44h6.12v.28h-.79v6.55h4.61v-.68Z"/><path class="cls-1" d="M79.84,13V30.31h.8v.32H74.41v-.32h.79V27.86a9,9,0,0,1-6.55,2.81,9.5,9.5,0,0,1-1.73-.18,9.06,9.06,0,0,1-7.23-8.78A9,9,0,0,1,66.85,13a7.85,7.85,0,0,1,1.8-.25,9.09,9.09,0,0,1,6.55,2.77V13h-.79v-.32h6.23V13ZM75.2,16A8.76,8.76,0,0,0,68.65,13c-3.31,0-4,5.83-4,8.71,0,2.3,0,8.6,4,8.6a8.79,8.79,0,0,0,6.55-2.95Z"/><path class="cls-1" d="M102.38,30.38h.79v.29H96.91v-.29h.76V28.44a7.56,7.56,0,0,1-5.4,2.23c-4.47,0-7.64-3.75-7.92-8.07V13h-.87v-.32h6V13h-.82V23.47c.1,1.76.86,6.91,3.6,6.91A7.33,7.33,0,0,0,97.67,28V13h-.76v-.32h6.26V13h-.79Z"/><path class="cls-1" d="M119,15.62a2.29,2.29,0,0,1-2.3,2.27,2.26,2.26,0,0,1-2.3-2.27,2.22,2.22,0,0,1,.86-1.83A7.29,7.29,0,0,0,111.38,16V30.34h.79v.29H106v-.29h.75V13H106v-.29h6.15V13h-.79v2.59a8.21,8.21,0,0,1,5.33-2.23A2.29,2.29,0,0,1,119,15.62Z"/><path class="cls-1" d="M140.5,13V30.31h.8v.32h-6.23v-.32h.79V27.86a9,9,0,0,1-6.55,2.81,9.5,9.5,0,0,1-1.73-.18,9.06,9.06,0,0,1-7.23-8.78A9,9,0,0,1,127.51,13a7.85,7.85,0,0,1,1.8-.25,9.09,9.09,0,0,1,6.55,2.77V13h-.79v-.32h6.23V13Zm-4.64,3A8.76,8.76,0,0,0,129.31,13c-3.31,0-4,5.83-4,8.71,0,2.3,0,8.6,4,8.6a8.79,8.79,0,0,0,6.55-2.95Z"/></svg>