<svg id="Home" xmlns="http://www.w3.org/2000/svg" viewBox="0 0 193.69 33.98"><defs><style>.cls-1{fill:#fff;}</style></defs><title>Artboard 3</title><path class="cls-1" d="M10.15,33.64a.33.33,0,0,1-.34.34H.34A.33.33,0,0,1,0,33.64a.35.35,0,0,1,.24-.33l1.6-.63A2.33,2.33,0,0,0,3.29,30.5v-27A2.31,2.31,0,0,0,1.84,1.31L.24.68A.38.38,0,0,1,0,.34.34.34,0,0,1,.34,0H9.81a.33.33,0,0,1,.34.34.38.38,0,0,1-.24.34l-1.6.63A2.31,2.31,0,0,0,6.86,3.48v27a2.33,2.33,0,0,0,1.45,2.18l1.6.63A.35.35,0,0,1,10.15,33.64Z"/><path class="cls-1" d="M38.24,33.5a.27.27,0,0,1,.14.24.23.23,0,0,1-.24.24H34.56a.47.47,0,0,1-.38-.24L19.24,13.44c0-.1-.2,0-.2.1V31a2.26,2.26,0,0,0,1.46,2.08l.87.34a.28.28,0,0,1,.14.24.23.23,0,0,1-.24.24h-6a.23.23,0,0,1-.25-.24.27.27,0,0,1,.15-.24l.87-.34a2.33,2.33,0,0,0,1.45-2.17V11.12A2.33,2.33,0,0,0,16,8.94l-.87-.34A.25.25,0,0,1,15,8.36a.23.23,0,0,1,.25-.24H18.8a.51.51,0,0,1,.39.24L34.13,28.67c0,.09.19,0,.19-.1V11.07a2.26,2.26,0,0,0-1.45-2.13L32,8.6a.25.25,0,0,1-.15-.24.23.23,0,0,1,.25-.24h6a.23.23,0,0,1,.24.24.26.26,0,0,1-.14.24l-.87.34a2.33,2.33,0,0,0-1.45,2.18V30.94a2.33,2.33,0,0,0,1.45,2.17l.87.34Z"/><path class="cls-1" d="M45.87,15c0,2.51,2.52,3.48,5.75,5,2.71,1.31,7.59,3,7.59,7.3,0,3.53-3.67,6.43-8.84,6.43a9.48,9.48,0,0,1-4.21-1.06,1.63,1.63,0,0,0-2.22.58c-.15.29-.24.34-.39.34s-.34-.1-.34-.25V26.1c0-.29.49-.33.63-.09,0,0,2.27,6.09,6.58,6.09s6.14-2.47,6.14-4.84-3-3.53-4.74-4.49c-2.9-1.55-8.51-3.43-8.51-8.22,0-3.53,2.76-6.67,8.85-6.43a10.19,10.19,0,0,1,4.2,1.06,1.64,1.64,0,0,0,2.23-.58c.14-.29.24-.33.38-.33s.34.09.34.24v7.25c0,.14-.14.24-.34.24a.31.31,0,0,1-.29-.14S56.36,10,52.11,9.76,45.87,12.38,45.87,15Z"/><path class="cls-1" d="M81.21,8.17a.23.23,0,0,1,.24.24V12a.23.23,0,0,1-.24.24.25.25,0,0,1-.24-.15l-.34-.87a2.33,2.33,0,0,0-2.18-1.45H74.73a.54.54,0,0,0-.53.54V31.37A1.67,1.67,0,0,0,75.31,33l1.21.48a.28.28,0,0,1,.14.24.22.22,0,0,1-.24.24H69.17a.22.22,0,0,1-.24-.24.28.28,0,0,1,.14-.24L70.28,33a1.67,1.67,0,0,0,1.11-1.6V10.3a.54.54,0,0,0-.53-.54H67.14A2.33,2.33,0,0,0,65,11.21l-.33.87a.27.27,0,0,1-.25.15.23.23,0,0,1-.24-.24V8.41a.23.23,0,0,1,.24-.24H81.21Z"/><path class="cls-1" d="M110,33.5a.27.27,0,0,1,.14.24.22.22,0,0,1-.24.24h-7.44a.22.22,0,0,1-.24-.24.25.25,0,0,1,.14-.24,1.72,1.72,0,0,0,1.11-2.37l-1.84-4.54a.72.72,0,0,0-.67-.49H90.49a.74.74,0,0,0-.68.49l-1.89,4.64a1.59,1.59,0,0,0,1.16,2.17.27.27,0,0,1,.15.24.23.23,0,0,1-.24.25H82.8a.23.23,0,0,1-.24-.25.28.28,0,0,1,.14-.24l.87-.34a5.67,5.67,0,0,0,2.76-2.12l8.27-20.4a1.16,1.16,0,0,0-.68-1.6l-.73-.29a.27.27,0,0,1-.14-.24.23.23,0,0,1,.24-.24h3.63a.35.35,0,0,1,.33.24l.54,1.35L106.39,31a5.44,5.44,0,0,0,2.71,2.12l.87.34Zm-9.28-9.14L95.8,12.18a.13.13,0,0,0-.24,0L90.68,24.36c-.05.1,0,.2.1.2h9.81C100.69,24.56,100.73,24.46,100.69,24.36Z"/><path class="cls-1" d="M136.17,8.22a.23.23,0,0,1,.24.24.26.26,0,0,1-.15.24l-1.21.48a1.69,1.69,0,0,0-1.11,1.6V25.62a8,8,0,0,1-8.26,8.31A8.43,8.43,0,0,1,120,31.86a8.29,8.29,0,0,1-2.61-6.29V10.73a1.68,1.68,0,0,0-1.11-1.59l-1.21-.49a.26.26,0,0,1-.15-.24.23.23,0,0,1,.25-.24h7.25a.23.23,0,0,1,.24.24.26.26,0,0,1-.15.24l-1.2.49a1.67,1.67,0,0,0-1.12,1.59v16a5.27,5.27,0,0,0,5.51,5.61c2.76,0,6.72-1.74,6.72-5.61v-16a1.66,1.66,0,0,0-1.11-1.59l-1.21-.49a.27.27,0,0,1-.14-.24.23.23,0,0,1,.24-.24h6Z"/><path class="cls-1" d="M162.41,33.45a.27.27,0,0,1,.15.24.23.23,0,0,1-.24.24H159.8a4.65,4.65,0,0,1-4.11-2.51l-4.88-9.67a.6.6,0,0,0-.48-.24h-3.68a.53.53,0,0,0-.53.53v9.38a1.69,1.69,0,0,0,1.11,1.6l1.21.48a.26.26,0,0,1,.15.24.23.23,0,0,1-.24.24H141.1a.23.23,0,0,1-.25-.24.26.26,0,0,1,.15-.24l1.21-.48a1.69,1.69,0,0,0,1.11-1.6V11.21A2.33,2.33,0,0,0,141.87,9L141,8.7a.26.26,0,0,1-.15-.24.23.23,0,0,1,.25-.24H153c4.68,0,7.15,3.33,7.15,6.62a6.84,6.84,0,0,1-6.38,6.57c-.1,0-.15.1-.1.2L158,30a6.39,6.39,0,0,0,3.43,3.14l.92.34Zm-9.28-13.63c3.05,0,4.4-2,4.4-5.08,0-2.75-1.35-5.07-4.4-5.07H146.7a.53.53,0,0,0-.53.53v9.14a.53.53,0,0,0,.53.53Z"/><path class="cls-1" d="M193.54,33.5a.26.26,0,0,1,.15.24.23.23,0,0,1-.24.24H186a.23.23,0,0,1-.24-.24.27.27,0,0,1,.14-.24A1.73,1.73,0,0,0,187,31.13l-1.84-4.54a.74.74,0,0,0-.68-.49H174.06a.74.74,0,0,0-.68.49l-1.88,4.64a1.58,1.58,0,0,0,1.16,2.17.26.26,0,0,1,.14.24.23.23,0,0,1-.24.25h-6.18a.24.24,0,0,1-.25-.25.27.27,0,0,1,.15-.24l.87-.34a5.6,5.6,0,0,0,2.75-2.12l8.27-20.4a1.16,1.16,0,0,0-.68-1.6l-.72-.29a.26.26,0,0,1-.15-.24.23.23,0,0,1,.24-.24h3.63a.37.37,0,0,1,.34.24l.53,1.35L190,31a5.37,5.37,0,0,0,2.7,2.12l.87.34Zm-9.28-9.14-4.88-12.18a.13.13,0,0,0-.24,0l-4.88,12.18c0,.1,0,.2.09.2h9.81C184.26,24.56,184.31,24.46,184.26,24.36Z"/></svg>