<svg id="Home" xmlns="http://www.w3.org/2000/svg" viewBox="0 0 167.36 25.3"><defs><style>.cls-1{fill:#fff;}</style></defs><title>Artboard 7</title><path class="cls-1" d="M11.91,0c4.61,0,7,3.28,7,6.52a6.78,6.78,0,0,1-7,6.51H5.62a.5.5,0,0,0-.51.5v9.18a1.73,1.73,0,0,0,1.08,1.62l1.19.47a.27.27,0,0,1,.18.25.24.24,0,0,1-.25.25H.25A.24.24,0,0,1,0,25.05a.27.27,0,0,1,.18-.25l1.19-.47a1.73,1.73,0,0,0,1.08-1.62V3A2.24,2.24,0,0,0,1,.86L.18.54A.27.27,0,0,1,0,.29.24.24,0,0,1,.25,0H12Zm0,11.41c3,0,4.32-1.94,4.32-4.93,0-2.7-1.33-5-4.32-5H5.62A.5.5,0,0,0,5.11,2v8.92a.5.5,0,0,0,.51.51h6.29Z"/><path class="cls-1" d="M38.34,6.08a.17.17,0,0,1,.18.18.19.19,0,0,1-.11.18l-.9.36A1.25,1.25,0,0,0,36.68,8V19a6,6,0,0,1-6.15,6.19,6.27,6.27,0,0,1-4.21-1.54A6.19,6.19,0,0,1,24.37,19V8a1.24,1.24,0,0,0-.83-1.19l-.9-.36a.2.2,0,0,1-.1-.18.17.17,0,0,1,.18-.18h5.4a.17.17,0,0,1,.17.18.2.2,0,0,1-.1.18l-.9.36A1.24,1.24,0,0,0,26.46,8V19.87A3.91,3.91,0,0,0,30.56,24c2.05,0,5-1.29,5-4.17V8a1.25,1.25,0,0,0-.83-1.19l-.9-.36a.21.21,0,0,1-.11-.18.17.17,0,0,1,.18-.18h4.5Z"/><path class="cls-1" d="M57.89,24.87a.2.2,0,0,1,.1.18.17.17,0,0,1-.18.18H55.94a3.46,3.46,0,0,1-3.06-1.87l-3.63-7.2a.44.44,0,0,0-.36-.18H46.15a.4.4,0,0,0-.39.4v7a1.25,1.25,0,0,0,.82,1.19l.9.36a.18.18,0,0,1,.11.18.17.17,0,0,1-.18.18H42a.17.17,0,0,1-.18-.18.2.2,0,0,1,.11-.18l.9-.36a1.25,1.25,0,0,0,.83-1.19v-15A1.72,1.72,0,0,0,42.59,6.7l-.65-.26a.19.19,0,0,1-.11-.18A.17.17,0,0,1,42,6.08H50.9A5,5,0,0,1,56.23,11a5.11,5.11,0,0,1-4.75,4.9.09.09,0,0,0-.07.14l3.16,6.23a4.77,4.77,0,0,0,2.56,2.34l.68.25ZM51,14.72c2.26,0,3.27-1.47,3.27-3.78,0-2-1-3.78-3.27-3.78H46.19a.4.4,0,0,0-.4.4v6.8a.4.4,0,0,0,.4.4Z"/><path class="cls-1" d="M74.37,22a.17.17,0,0,1,.18.18v2.48a.4.4,0,0,1-.39.4H60.84a.17.17,0,0,1-.18-.18.2.2,0,0,1,.11-.18l.86-.33a1.23,1.23,0,0,0,.83-1.18V7.81a1.24,1.24,0,0,0-.83-1.19l-.86-.32a.21.21,0,0,1-.11-.18.17.17,0,0,1,.18-.18H73a.4.4,0,0,1,.4.4V8.82a.17.17,0,0,1-.18.18.2.2,0,0,1-.18-.11l-.25-.65a1.77,1.77,0,0,0-1.55-1.11H64.87a.4.4,0,0,0-.39.39v4.65a.4.4,0,0,0,.39.39h4.54A1.74,1.74,0,0,0,71,11.48l.25-.65a.19.19,0,0,1,.18-.1.17.17,0,0,1,.18.18v4.5a.17.17,0,0,1-.18.18.2.2,0,0,1-.18-.11L71,14.83a1.74,1.74,0,0,0-1.62-1.08H64.87a.4.4,0,0,0-.39.4v9.5a.39.39,0,0,0,.39.39h7.45A1.67,1.67,0,0,0,73.87,23l.25-.65a.21.21,0,0,1,.18-.11Z"/><path class="cls-1" d="M105,24.8a.28.28,0,0,1,.19.25.24.24,0,0,1-.26.25h-7.3a.24.24,0,0,1-.26-.25.28.28,0,0,1,.18-.25,1.65,1.65,0,0,0,1.08-2.27l-1.8-4.46a.72.72,0,0,0-.68-.47H86a.74.74,0,0,0-.68.47l-1.84,4.54a1.59,1.59,0,0,0,1.12,2.16.26.26,0,0,1,.18.25.25.25,0,0,1-.25.25H78.44a.25.25,0,0,1-.25-.25.26.26,0,0,1,.18-.25l.83-.33a5.18,5.18,0,0,0,2.66-2.05L89.93,2.45A1.21,1.21,0,0,0,89.24.83L88.56.58a.28.28,0,0,1-.18-.26.25.25,0,0,1,.25-.25h3.53a.39.39,0,0,1,.36.22l.54,1.33,8.42,20.73a5.39,5.39,0,0,0,2.7,2.09l.83.33ZM96,15.91,91.19,4A.11.11,0,0,0,91,4L86.18,15.91c0,.07,0,.14.11.14h9.58C95.94,16.05,96,16,96,15.91Z"/><path class="cls-1" d="M124.52,6.08a.19.19,0,0,1,.07.36l-.9.36A1.25,1.25,0,0,0,122.87,8V19a6,6,0,0,1-6.16,6.19,6.29,6.29,0,0,1-4.21-1.54A6.18,6.18,0,0,1,110.56,19V8a1.25,1.25,0,0,0-.83-1.19l-.9-.36a.21.21,0,0,1-.11-.18.17.17,0,0,1,.18-.18h5.4a.17.17,0,0,1,.18.18.21.21,0,0,1-.11.18l-.9.36A1.25,1.25,0,0,0,112.64,8V19.87A3.92,3.92,0,0,0,116.75,24c2,0,5-1.29,5-4.17V8a1.24,1.24,0,0,0-.83-1.19l-.9-.36a.21.21,0,0,1-.11-.18.17.17,0,0,1,.18-.18h4.5Z"/><path class="cls-1" d="M144.07,24.87a.21.21,0,0,1,.11.18.17.17,0,0,1-.18.18h-1.87a3.45,3.45,0,0,1-3.06-1.87l-3.64-7.2a.43.43,0,0,0-.36-.18h-2.73a.4.4,0,0,0-.4.4v7a1.24,1.24,0,0,0,.83,1.19l.9.36a.19.19,0,0,1,.1.18.17.17,0,0,1-.17.18h-5.4a.17.17,0,0,1-.18-.18.19.19,0,0,1,.1-.18l.9-.36a1.24,1.24,0,0,0,.83-1.19v-15a1.72,1.72,0,0,0-1.08-1.61l-.65-.26a.18.18,0,0,1-.1-.18.17.17,0,0,1,.18-.18h8.89A5,5,0,0,1,142.41,11a5.11,5.11,0,0,1-4.75,4.9c-.07,0-.1.07-.07.14l3.17,6.23a4.78,4.78,0,0,0,2.55,2.34l.69.25Zm-6.91-10.15c2.27,0,3.27-1.47,3.27-3.78,0-2-1-3.78-3.27-3.78h-4.79a.4.4,0,0,0-.39.4v6.8a.4.4,0,0,0,.39.4Z"/><path class="cls-1" d="M167.25,24.91a.18.18,0,0,1,.11.18.17.17,0,0,1-.18.18h-5.54a.17.17,0,0,1-.18-.18.18.18,0,0,1,.11-.18,1.28,1.28,0,0,0,.82-1.76L161,19.76a.56.56,0,0,0-.51-.36h-7.77a.55.55,0,0,0-.51.36l-1.4,3.46a1.19,1.19,0,0,0,.86,1.62.17.17,0,0,1,.11.18.17.17,0,0,1-.18.18H147a.17.17,0,0,1-.18-.18.19.19,0,0,1,.11-.18l.65-.26A4.16,4.16,0,0,0,149.65,23l6.16-15.19a.87.87,0,0,0-.51-1.19l-.54-.21a.21.21,0,0,1-.11-.18.18.18,0,0,1,.19-.18h2.69a.28.28,0,0,1,.26.18l.39,1L164.59,23a4,4,0,0,0,2,1.58l.64.25Zm-6.91-6.8L156.71,9a.1.1,0,0,0-.18,0l-3.64,9.07a.09.09,0,0,0,.07.14h7.31A.09.09,0,0,0,160.34,18.11Z"/></svg>