<svg id="Home" xmlns="http://www.w3.org/2000/svg" viewBox="0 0 156.38 30.74"><defs><style>.cls-1{fill:#fff;}</style></defs><title>Artboard 5</title><path class="cls-1" d="M10.66,15.41H5.87V30.34H6.7v.4H0v-.4H1V.54H0V.22H11.16C21.45.36,21.06,15.84,10.66,15.41Zm0-14.87H5.87V15.05h4.79C16,12.74,15.41,3.53,10.69.54Z"/><path class="cls-1" d="M39.45,30.45h.8v.29H34v-.29h.76V28.51a7.56,7.56,0,0,1-5.4,2.23c-4.46,0-7.63-3.74-7.92-8.06V13.1h-.86v-.32h6v.32h-.83V23.54c.11,1.76.86,6.91,3.6,6.91a7.3,7.3,0,0,0,5.4-2.34v-15H34v-.32h6.27v.32h-.8Z"/><path class="cls-1" d="M56.09,15.69A2.3,2.3,0,0,1,53.78,18a2.3,2.3,0,0,1-1.44-4.1,7.26,7.26,0,0,0-3.88,2.19V30.42h.79v.28H43.09v-.28h.76V13h-.76v-.29h6.16V13h-.79v2.59a8.16,8.16,0,0,1,5.32-2.23A2.3,2.3,0,0,1,56.09,15.69Z"/><path class="cls-1" d="M70.52,21.89h-8.1c0,2.41.22,8.53,4.07,8.53a8.43,8.43,0,0,0,7.34-4.11h.4a8.91,8.91,0,0,1-7.74,4.43,11.72,11.72,0,0,1-2.19-.25,9,9,0,0,1-6.84-8.78A9.11,9.11,0,0,1,65,12.85a2.46,2.46,0,0,0,.54,0c.32,0,.68-.07,1-.07a11.8,11.8,0,0,1,1.51.11,9.25,9.25,0,0,1,7.13,6.52,8.56,8.56,0,0,1,.32,2.52Zm0-.29a16.34,16.34,0,0,0-1.26-6.52,3.25,3.25,0,0,0-2.34-2h-.83c-1.91.25-2.66,2.88-2.7,2.84a22.56,22.56,0,0,0-.94,5.69Z"/><path class="cls-1" d="M99.14,30.34v.4H91.69v-.4h.86l-3-9.21H80.06l-3.42,9.25h.87v.36H75.38v-.36h.87L87.33,0,98.21,30.34Zm-9.61-9.57L85.14,7.27l-5,13.5Z"/><path class="cls-1" d="M117.47,30.45h.79v.29H112v-.29h.76V28.51a7.54,7.54,0,0,1-5.4,2.23c-4.46,0-7.63-3.74-7.92-8.06V13.1h-.86v-.32h6v.32h-.83V23.54c.11,1.76.87,6.91,3.6,6.91a7.3,7.3,0,0,0,5.4-2.34v-15H112v-.32h6.27v.32h-.79Z"/><path class="cls-1" d="M134.1,15.69a2.31,2.31,0,0,1-4.61,0,2.25,2.25,0,0,1,.87-1.83,7.25,7.25,0,0,0-3.89,2.19V30.42h.79v.28H121.1v-.28h.76V13h-.76v-.29h6.16V13h-.79v2.59a8.16,8.16,0,0,1,5.32-2.23A2.3,2.3,0,0,1,134.1,15.69Z"/><path class="cls-1" d="M155.59,13.07V30.38h.79v.32h-6.22v-.32H151V27.93a8.93,8.93,0,0,1-6.55,2.81,9.5,9.5,0,0,1-1.73-.18A8.93,8.93,0,0,1,142.6,13a7.78,7.78,0,0,1,1.8-.25A9.12,9.12,0,0,1,151,15.55V13.07h-.79v-.33h6.22v.33ZM151,16a8.77,8.77,0,0,0-6.55-2.92c-3.32,0-4,5.83-4,8.71,0,2.31,0,8.61,4,8.61a8.81,8.81,0,0,0,6.55-3Z"/></svg>