<svg id="Layer_1" data-name="Layer 1" xmlns="http://www.w3.org/2000/svg" xmlns:xlink="http://www.w3.org/1999/xlink" viewBox="0 0 207 43"><defs><style>.cls-1{fill:url(#linear-gradient);}</style><linearGradient id="linear-gradient" x1="2.39" y1="21.5" x2="204.61" y2="21.5" gradientUnits="userSpaceOnUse"><stop offset="0" stop-color="#753a88"/><stop offset="1" stop-color="#cc2b5e"/></linearGradient></defs><path class="cls-1" d="M7.38,25,4.57,22.59V43H2.39V.84H4.57V6.22L7.38,3.87a13,13,0,0,1,8.29-3A13.43,13.43,0,0,1,28.85,14.41,13.43,13.43,0,0,1,15.67,28,13,13,0,0,1,7.38,25ZM4.74,13v2.92A10.75,10.75,0,0,0,15.67,25.4a10.71,10.71,0,0,0,10.88-11A10.94,10.94,0,0,0,4.74,13Z"/><path class="cls-1" d="M32.66,15.08c-.11-.9,0-1.46.06-14.74h2.13V15.42c.56,5.94,6,10.65,11.1,10.65a11.6,11.6,0,0,0,11-9.59V.34h2.13v28H57v-6a25.77,25.77,0,0,1-3,3.08,12.84,12.84,0,0,1-8,2.92,13,13,0,0,1-11.27-6.79A15.51,15.51,0,0,1,32.66,15.08Z"/><path class="cls-1" d="M74.65,2.3c-5,.45-8.91,4.82-9.92,9.92v16.2h-1.9V.28h1.9V6.84a19,19,0,0,1,2.92-3.59,12,12,0,0,1,7-3Z"/><path class="cls-1" d="M101.45,15.25H76c1,7.4,6.56,11,11.72,11a12.8,12.8,0,0,0,6-1.74l3.37.06a13.68,13.68,0,0,1-9.42,3.81A14,14,0,0,1,74,14.18,14,14,0,0,1,87.72,0C95.45,0,101.28,6.67,101.45,15.25Zm-2.24-2.13c-1.46-7.35-6.33-11-11.49-11s-10.54,3.26-11.66,11Z"/><path class="cls-1" d="M130.1,28.42V22.93l-2.91,2.41a13.16,13.16,0,0,1-8.52,3.08,13.77,13.77,0,0,1-13.52-14A13.74,13.74,0,0,1,118.67.5a13.17,13.17,0,0,1,8.52,3.09L130.1,6V.45h2.41v28Zm-.28-15.25V13a11.19,11.19,0,0,0-22.31,1.51A11.19,11.19,0,0,0,129.82,16Z"/><path class="cls-1" d="M136.05,15.08c-.12-.9-.06-1.46,0-14.74h2.13V15.42c.56,5.94,6,10.65,11.1,10.65a11.62,11.62,0,0,0,11-9.59V.34h2.13v28h-2.13v-6a25.36,25.36,0,0,1-3,3.08,12.81,12.81,0,0,1-8,2.92,13.05,13.05,0,0,1-11.27-6.79A15.35,15.35,0,0,1,136.05,15.08Z"/><path class="cls-1" d="M178,2.3c-5,.45-8.92,4.82-9.93,9.92v16.2h-1.9V.28h1.9V6.84A19,19,0,0,1,171,3.25a12,12,0,0,1,7-3Z"/><path class="cls-1" d="M202.2,28.42V22.93l-2.91,2.41a13.17,13.17,0,0,1-8.53,3.08,13.77,13.77,0,0,1-13.51-14A13.74,13.74,0,0,1,190.76.5a13.18,13.18,0,0,1,8.53,3.09L202.2,6V.45h2.41v28Zm-.28-15.25V13a11.19,11.19,0,0,0-22.31,1.51A11.19,11.19,0,0,0,201.92,16Z"/></svg>